<?xml version="1.0" encoding="utf-8"?>
<!-- Generator: Adobe Illustrator 17.0.0, SVG Export Plug-In . SVG Version: 6.00 Build 0)  -->
<!DOCTYPE svg PUBLIC "-//W3C//DTD SVG 1.1//EN" "http://www.w3.org/Graphics/SVG/1.1/DTD/svg11.dtd">
<svg version="1.1" id="Layer_1" xmlns="http://www.w3.org/2000/svg" xmlns:xlink="http://www.w3.org/1999/xlink" x="0px" y="0px"
	 width="500px" height="115px" viewBox="0 0 500 115" enable-background="new 0 0 500 115" xml:space="preserve">
<g>
	<polygon fill="#64ABBF" points="61.8,57.335 47.39,28.517 21.454,28.517 21.454,0.018 10.247,0.018 10.247,28.517 0,28.517 
		0,38.443 10.247,38.443 10.247,82.951 21.454,82.951 21.454,38.443 39.705,38.443 61.479,82.951 88.056,28.517 75.568,28.517 	"/>
	<path fill="#A5A9AC" d="M89.337,44.367c0,8.842,7.168,16.01,16.01,16.01h3.221c0,0,0,0,0,0h14.071c3.001,0,5.443,2.442,5.443,5.443
		c0,3.001-2.442,5.443-5.443,5.443H89.337v10.567h33.301c8.842,0,16.01-7.168,16.01-16.01c0-8.842-7.168-16.01-16.01-16.01h-0.115
		c0,0,0,0,0,0h-17.177c-3.001,0-5.443-2.442-5.443-5.443s2.442-5.443,5.443-5.443h33.302V28.356h-33.301
		C96.505,28.356,89.337,35.524,89.337,44.367z"/>
	<path fill="#A5A9AC" d="M198.367,89.756V28.517H187.8v4.837c-4.562-3.467-10.25-5.529-16.422-5.529
		c-15.003,0-27.166,12.163-27.166,27.166s12.163,27.166,27.166,27.166c6.172,0,11.86-2.062,16.422-5.529v13.128
		c0,13.794,11.182,24.976,24.976,24.976h2.402v-10.567h-2.402C204.831,104.165,198.367,97.701,198.367,89.756z M171.378,71.589
		c-9.153,0-16.599-7.446-16.599-16.599s7.446-16.599,16.599-16.599c8.373,0,15.3,6.238,16.422,14.307v4.585
		C186.678,65.352,179.752,71.589,171.378,71.589z"/>
	<path fill="#A5A9AC" d="M247.348,54.311c0,9.966-7.363,18.074-16.414,18.074s-16.415-8.108-16.415-18.074V28.517h-10.417v25.794
		c0,15.818,12.013,28.641,26.831,28.641c14.819,0,26.831-12.823,26.831-28.641V28.517h-10.417V54.311z"/>
	<path fill="#A5A9AC" d="M305.956,33.379c-4.562-3.475-10.244-5.555-16.422-5.555c-15.003,0-27.166,12.163-27.166,27.166
		s12.163,27.166,27.166,27.166c6.173,0,11.862-2.062,16.422-5.531v6.326h10.567V28.517h-10.567V33.379z M289.534,71.589
		c-9.153,0-16.599-7.446-16.599-16.599s7.446-16.599,16.599-16.599c8.373,0,15.3,6.238,16.422,14.307v4.585
		C304.833,65.352,297.907,71.589,289.534,71.589z"/>
	<path fill="#A5A9AC" d="M457.733,33.943c-4.562-3.475-10.244-5.555-16.422-5.555c-15.003,0-27.166,12.163-27.166,27.166
		s12.163,27.166,27.166,27.166c6.173,0,11.862-2.062,16.422-5.531v6.326H468.3V0.659h-10.567V33.943z M441.311,72.153
		c-9.153,0-16.599-7.446-16.599-16.599s7.446-16.599,16.599-16.599c8.373,0,15.3,6.238,16.422,14.307v4.585
		C456.611,65.915,449.684,72.153,441.311,72.153z"/>
	<path fill="#A5A9AC" d="M332.253,35.241l-0.068-6.884h-10.567v54.595h10.417v-0.16h0.15V54.843
		c-0.052-5.673,8.354-16.36,22.4-15.76l-0.238-10.567C342.819,28.356,336.766,31.563,332.253,35.241z"/>
	<path fill="#A5A9AC" d="M409.214,49.65h-0.267c-2.764-12.073-13.563-21.082-26.473-21.082c-15.003,0-27.166,12.163-27.166,27.166
		S367.47,82.9,382.473,82.9c7.464,0,14.224-3.01,19.134-7.882l-7.278-7.677c-3.015,3.079-7.216,4.992-11.856,4.992
		c-7.497,0-13.841-4.998-15.895-11.834h42.635v-0.001c0.001,0.001,0.002,0.001,0.004,0.002c0.276-1.547,0.421-3.139,0.421-4.765
		c0-1.626-0.151-3.217-0.425-4.765V49.65z M367.045,49.65c2.433-6.149,8.425-10.515,15.429-10.515s12.995,4.367,15.429,10.515
		H367.045z"/>
	<path fill="#64ABBF" d="M499.039,0.659h-25.336c-0.531,0-0.961,0.43-0.961,0.961v25.336c0,0.531,0.43,0.961,0.961,0.961h25.336
		c0.531,0,0.961-0.43,0.961-0.961V1.619C500,1.089,499.57,0.659,499.039,0.659z"/>
</g>
</svg>
